# AST/ASF file generated using VICON BodyLanguage
# -----------------------------------------------
:version 1.10
:name VICON
:units
  mass 1.0
  length 0.45
  angle deg
:documentation
   .ast/.asf automatically generated from VICON data using
   VICON BodyBuilder and BodyLanguage model FoxedUp or BRILLIANT.MOD
:root
   order TX TY TZ RX RY RZ
   axis XYZ
   position 0 0 0  
   orientation 0 0 0 
:bonedata
  begin
     id 1 
     name lhipjoint
     direction 0.558404 -0.748506 0.357664 
     length 2.4234 
     axis 0 0 0  XYZ
  end
  begin
     id 2 
     name lfemur
     direction 0.34202 -0.939693 0  
     length 7.14567  
     axis 0 0 20  XYZ
    dof rx ry rz
    limits (-160.0 20.0)
           (-70.0 70.0)
           (-60.0 70.0)
  end
  begin
     id 3 
     name ltibia
     direction 0.34202 -0.939693 0   
     length 8.13956   
     axis 0 0 20   XYZ
    dof rx
    limits (-10.0 170.0)
  end
  begin
     id 4 
     name lfoot
     direction 0.0791314 -0.217412 0.972867   
     length 2.00134   
     axis -90 7.62852e-016 20   XYZ
    dof rx rz
    limits (-45.0 90.0)
           (-70.0 20.0)
  end
  begin
     id 5 
     name ltoes
     direction 1.53547e-011 -4.21922e-011 1   
     length 1.00735   
     axis -90 7.62852e-016 20   XYZ
    dof rx
    limits (-90.0 20.0)
  end
  begin
     id 6 
     name rhipjoint
     direction -0.496392 -0.78327 0.374276   
     length 2.31584  
     axis 0 0 0  XYZ 
  end
  begin
     id 7 
     name rfemur
     direction -0.34202 -0.939693 0   
     length 7.47417   
     axis 0 0 -20   XYZ
    dof rx ry rz
    limits (-160.0 20.0)
           (-70.0 70.0)
           (-70.0 60.0)
  end
  begin
     id 8 
     name rtibia
     direction -0.34202 -0.939693 0   
     length 7.69071   
     axis 0 0 -20   XYZ
    dof rx
    limits (-10.0 170.0)
 end
 begin
     id 9 
     name rfoot
     direction -0.103069 -0.28318 0.953512   
     length 2.16135  
     axis -90 -7.62852e-016 -20   XYZ
    dof rx rz
    limits (-45.0 90.0)
           (-20.0 70.0)
  end
  begin
     id 10 
     name rtoes
     direction -1.53581e-011 -4.21904e-011 1   
     length 1.07867   
     axis -90 -7.62852e-016 -20   XYZ
    dof rx
    limits (-90.0 20.0)
  end
  begin
     id 11 
     name lowerback
     direction -0.0258961 0.994776 -0.0987407   
     length 2.19412   
     axis 0 0 0   XYZ
    dof rx ry rz
    limits (-20.0 45.0)
           (-30.0 30.0)
           (-30.0 30.0)
  end
  begin
     id 12 
     name upperback
     direction 0.0402454 0.999185 0.00320666   
     length 2.18445   
     axis 0 0 0   XYZ
    dof rx ry rz
    limits (-20.0 45.0)
           (-30.0 30.0)
           (-30.0 30.0)
  end
  begin
     id 13 
     name thorax
     direction 0.0519376 0.997415 0.0496558   
     length 2.21487   
     axis 0 0 0   XYZ
    dof rx ry rz
    limits (-20.0 45.0)
           (-30.0 30.0)
           (-30.0 30.0)
  end
  begin
     id 14 
     name lowerneck
     direction -0.0921276 0.983211 0.157506   
     length 1.61201   
     axis 0 0 0   XYZ
    dof rx ry rz
    limits (-20.0 45.0)
           (-30.0 30.0)
           (-30.0 30.0)
  end
  begin
     id 15 
     name upperneck
     direction 0.0820814 0.98162 -0.172292   
     length 1.65275   
     axis 0 0 0   XYZ
    dof rx ry rz
    limits (-20.0 45.0)
           (-30.0 30.0)
           (-30.0 30.0)
  end
  begin
     id 16
     name head
     direction 0.0336554 0.996413 -0.0776455  
     length 1.66415  
     axis 0 0 0   XYZ
    dof rx ry rz
    limits (-20.0 45.0)
           (-30.0 30.0)
           (-30.0 30.0)
  end
  begin
     id 17 
     name lclavicle
     direction 0.94696 0.284418 -0.149576  
     length 3.41447  
     axis 0 0 0   XYZ
    dof ry rz
    limits (-20.0 10.0)
           (0.0 20.0)
  end
  begin
     id 18 
     name lhumerus
     direction 1 -0.000130264 -9.81312e-005   
     length 5.19964   
     axis 180 -30 -90   XYZ
    dof rx ry rz
    limits (-60.0 90.0)
           (-90.0 90.0)
           (-90.0 90.0)
  end
  begin
     id 19
     name lradius
     direction 1 -4.48961e-011 1.43854e-026   
     length 3.32189   
     axis 180 -30 -90   XYZ
    dof rx
    limits (-10.0 170.0)
  end
  begin
     id 20
     name lwrist
     direction 1 -4.48958e-011 3.1502e-026   
     length 1.66095   
     axis -1.97692e-014 90 90   XYZ
    dof ry
    limits (-180.0 0.0)
 end
  begin
     id 21 
     name lhand
     direction 1 -4.48927e-011 6.3004e-026   
     length 0.645616   
     axis -4.02019e-014 90 90   XYZ
    dof rx rz
    limits (-90.0 90.0)
           (-45.0 45.0)
  end
  begin
     id 22 
     name lfingers
     direction 1 -4.4904e-011 1.26008e-025   
     length 0.520512   
     axis -8.04039e-014 90 90   XYZ
    dof rx
    limits (0.0 90.0)
  end
  begin
     id 23
     name lthumb
     direction 0.707107 -6.34947e-011 0.707107   
     length 0.747354   
     axis -90 45 2.85299e-015   XYZ
    dof rx rz
    limits (-45.0 45.0)
           (-45.0 45.0)
  end
  begin
     id 24 
     name rclavicle
     direction -0.909391 0.383475 -0.161107   
     length 3.25176  
     axis 0 0 0   XYZ 
    dof ry rz
    limits (-10.0 20.0)
           (-20.0 0.0)
  end
  begin
     id 25 
     name rhumerus
     direction -1 -4.48965e-011 -1.81384e-027  
     length 5.6595   
     axis 180 30 90   XYZ
    dof rx ry rz
    limits (-90.0 60.0)
           (-90.0 90.0)
           (-90.0 90.0)
  end
  begin
     id 26 
     name rradius
     direction -1 -4.48996e-011 -8.09397e-027   
     length 3.37604   
     axis 180 30 90   XYZ
    dof rx
    limits (-10.0 170.0)
  end
  begin
     id 27 
     name rwrist
     direction -1 -4.48927e-011 -1.56669e-026   
     length 1.68802   
     axis 1.21142e-014 -90 -90   XYZ
    dof ry
    limits (-180.0 0.0)
  end
  begin
     id 28
     name rhand
     direction -1 -4.48912e-011 -3.13339e-026   
     length 0.824702   
     axis 1.99937e-014 -90 -90   XYZ
    dof rx rz
    limits (-90.0 90.0)
           (-45.0 45.0)
  end
  begin
     id 29
     name rfingers
     direction -1 -4.49011e-011 -6.26677e-026   
     length 0.664896   
     axis 3.99874e-014 -90 -90   XYZ
    dof rx
    limits (0.0 90.0)
  end
  begin
     id 30
     name rthumb
     direction -0.707107 -6.34931e-011 0.707107   
     length 0.954662   
     axis -90 -45 -2.85299e-015   XYZ
    dof rx rz
    limits (-45.0 45.0)
           (-45.0 45.0)
  end
:hierarchy
  begin
    root lhipjoint rhipjoint lowerback
    lhipjoint lfemur
    lfemur ltibia
    ltibia lfoot
    lfoot ltoes
    rhipjoint rfemur
    rfemur rtibia
    rtibia rfoot
    rfoot rtoes
    lowerback upperback
    upperback thorax
    thorax lowerneck lclavicle rclavicle
    lowerneck upperneck
    upperneck head
    lclavicle lhumerus
    lhumerus lradius
    lradius lwrist
    lwrist lhand lthumb
    lhand lfingers
    rclavicle rhumerus
    rhumerus rradius
    rradius rwrist
    rwrist rhand rthumb
    rhand rfingers
  end

#!OML:ASF F:\VICON\USERDATA\INSTALL\rory3\rory3.ASF
:FULLY-SPECIFIED
:DEGREES
46
root 9.39669 16.7076 -30.926 23.8903 -41.1675 -5.63154
lowerback 13.9045 -2.48542 -6.32114
upperback 1.34178 -4.09028 2.9418
thorax -5.69982 -1.84089 7.47349
lowerneck -14.9225 3.62017 -8.38915
upperneck 16.4825 4.95895 9.90106
head 6.99739 2.75822 5.12855
rclavicle -1.15295e-014 3.73715e-014
rhumerus -37.1577 -5.84122 -76.3229
rradius 46.9526
rwrist -16.8939
rhand -13.4048 16.4218
rfingers 7.12502
rthumb 12.703 -13.1719
lclavicle -1.15295e-014 3.73715e-014
lhumerus -4.37932 12.7563 75.388
lradius 30.4136
lwrist -2.37748
lhand -2.58899 32.2005
lfingers 7.12502
lthumb 23.1084 60.8347
rfemur -66.9582 -3.08733 28.0088
rtibia 66.4315
rfoot -19.8729 -3.29985
rtoes 2.37906
lfemur -14.7567 -5.17227 -29.1585
ltibia 46.2443
lfoot -16.7589 -10.1983
ltoes 5.93415
47
root 9.31258 16.6414 -30.7527 24.0356 -40.5524 -5.52246
lowerback 13.9483 -2.67275 -6.40543
upperback 1.35051 -4.34733 3.03652
thorax -5.65663 -1.967 7.66919
lowerneck -15.7064 3.69743 -7.80245
upperneck 16.9522 5.00586 9.64642
head 7.30766 2.80199 4.99946
rclavicle -2.66371e-014 -5.08889e-014
rhumerus -37.5302 -6.01476 -75.9838
rradius 47.4951
rwrist -15.9895
rhand -13.1199 17.1302
rfingers 7.12502
rthumb 12.9776 -12.4462
lclavicle -2.66371e-014 -5.08889e-014
lhumerus -3.67005 12.8732 75.3496
lradius 30.3
lwrist -2.61108
lhand -2.94638 32.5762
lfingers 7.12502
lthumb 22.7654 61.2529
rfemur -68.3206 -3.18447 28.4094
rtibia 66.1294
rfoot -19.5575 -2.2933
rtoes 2.88956
lfemur -14.0358 -5.09017 -29.1174
ltibia 45.7613
lfoot -16.5631 -10.8474
ltoes 10.6354
48
root 9.22229 16.571 -30.5583 23.8892 -40.2104 -5.33194
lowerback 14.1365 -2.81419 -6.69347
upperback 1.37469 -4.58351 3.13757
thorax -5.66202 -2.0763 7.99686
lowerneck -15.9574 3.74291 -7.80415
upperneck 17.0048 5.06547 9.74057
head 7.36009 2.84346 5.04797
rclavicle -8.70677e-014 7.15625e-015
rhumerus -37.9402 -5.94054 -75.5901
rradius 48.0757
rwrist -15.1253
rhand -12.7972 17.7925
rfingers 7.12502
rthumb 13.2886 -11.7638
lclavicle -8.70677e-014 7.15625e-015
lhumerus -3.20381 13.1235 75.331
lradius 30.2029
lwrist -2.96951
lhand -2.87341 32.6474
lfingers 7.12502
lthumb 22.8355 61.3155
rfemur -69.3004 -3.15435 28.4664
rtibia 65.8988
rfoot -19.4892 -1.10349
rtoes 3.60808
lfemur -12.9939 -4.7038 -29.3202
ltibia 45.2754
lfoot -16.3135 -11.6591
ltoes 8.80431
49
root 9.13018 16.5359 -30.3602 23.9895 -39.5958 -5.17169
lowerback 14.1775 -3.04982 -6.89128
upperback 1.34365 -4.92 3.28334
thorax -5.62635 -2.23724 8.32823
lowerneck -15.7716 3.72132 -7.85983
upperneck 16.6685 5.04202 9.80374
head 7.21698 2.83557 5.05514
rclavicle -1.18476e-013 -1.35174e-014
rhumerus -38.2347 -6.03658 -75.26
rradius 48.6006
rwrist -13.9656
rhand -12.3402 18.4994
rfingers 7.12502
rthumb 13.7291 -11.0276
lclavicle -1.18476e-013 -1.35174e-014
lhumerus -2.63427 13.2543 75.2036
lradius 29.9663
lwrist -3.207
lhand -2.98139 32.5663
lfingers 7.12502
lthumb 22.7318 61.2472
rfemur -70.2896 -3.16201 28.3627
rtibia 65.6284
rfoot -19.3093 0.60331
rtoes 6.47447
lfemur -12.0495 -5.51943 -29.4887
ltibia 44.5278
lfoot -15.7948 -11.584
ltoes 10.8452
50
root 9.03726 16.5011 -30.183 24.5641 -38.4637 -4.94523
lowerback 13.8969 -3.40065 -6.92629
upperback 1.17289 -5.36423 3.45381
thorax -5.55027 -2.45244 8.58642
lowerneck -15.5725 3.79172 -7.35954
upperneck 16.272 5.07239 9.54685
head 7.07416 2.85748 4.86668
rclavicle 1.59028e-014 -1.98785e-014
rhumerus -38.6142 -6.13394 -75.1962
rradius 49.5781
rwrist -13.7177
rhand -12.5479 18.2471
rfingers 7.12502
rthumb 13.5289 -11.2934
lclavicle 1.59028e-014 -1.98785e-014
lhumerus -1.84435 13.3181 75.0622
lradius 29.6486
lwrist -3.54157
lhand -3.21821 32.7498
lfingers 7.12502
lthumb 22.5045 61.4584
rfemur -71.8596 -3.36259 28.3192
rtibia 65.4149
rfoot -18.6428 2.24827
rtoes 7.42526
lfemur -11.7521 -6.14396 -29.1928
ltibia 43.7029
lfoot -15.1712 -12.2595
ltoes 8.16636
